# xmcd
#
# Track frame offsets: 
#        150
#        9138
#        19727
#        32365
#        38454
#        50708
#        63507
#        75520
#        88315
#        91116
#        105886
#        120689
#        136840
#        151285
#        155277
#        170550
#        183892
#        192957
#        207584
#        222146
#        239059
#        251480
#        255508
#        268029
#        281741
#        293970
#        300942
#        314916
#        330754
#
# Disc length: 4567 seconds
#
# Revision: 0
# Processed by: cddbd v1.5.2PL0 Copyright (c) Steve Scherf et al.
# Submitted via: ExactAudioCopyFreeDBPlugin 1.0
#
DISCID=8311d51d
DTITLE=Merle Haggard - Same Train A Different Time - A Tribute To Jimm
DTITLE=ie Rodgers
DYEAR=1994
DGENRE=Country
TTITLE0=Jimmie The Kid
TTITLE1=My Rough And Rowdy Ways
TTITLE2=California Blues  (Blue Yodel No. 4)
TTITLE3=Narration #1
TTITLE4=Hobo's Meditation
TTITLE5=Waitin' For A Train
TTITLE6=Mother, The Queen Of My Heart
TTITLE7=My Carolina Sunshine Girl
TTITLE8=Narration #2
TTITLE9=Train Whistle Blues
TTITLE10=Why Should I Be Lonely
TTITLE11=Jimmie's Texas Blues
TTITLE12=Blue Yodel, #6
TTITLE13=Narration #3
TTITLE14=Mule Skinner Blues (Blue Yodel No. 8)
TTITLE15=Peach Picking Time In Georgia
TTITLE16=Down The Old Road To Home
TTITLE17=Travelin' Blues
TTITLE18=Miss The Mississippi And You
TTITLE19=Frankie And Johnny
TTITLE20=No Hard Times
TTITLE21=Narration #4
TTITLE22=Hobo Bill's Last Ride
TTITLE23=My Old Pal
TTITLE24=Nobody Knows But Me
TTITLE25=Narration #5
TTITLE26=Jimmie Rodger's Last Blue Yodel  (Women Make A Fool Out Of Me
TTITLE26=)
TTITLE27=Mississippi Delta Blues
TTITLE28=Gambling Polka Dot Blues
EXTD=
EXTT0=
EXTT1=
EXTT2=
EXTT3=
EXTT4=
EXTT5=
EXTT6=
EXTT7=
EXTT8=
EXTT9=
EXTT10=
EXTT11=
EXTT12=
EXTT13=
EXTT14=
EXTT15=
EXTT16=
EXTT17=
EXTT18=
EXTT19=
EXTT20=
EXTT21=
EXTT22=
EXTT23=
EXTT24=
EXTT25=
EXTT26=
EXTT27=
EXTT28=
PLAYORDER=
